<?xml version="1.0" encoding="UTF-8" standalone="no"?><!DOCTYPE svg PUBLIC "-//W3C//DTD SVG 1.1//EN" "http://www.w3.org/Graphics/SVG/1.1/DTD/svg11.dtd"><svg width="100%" height="100%" viewBox="0 0 237 143" version="1.1" xmlns="http://www.w3.org/2000/svg" xmlns:xlink="http://www.w3.org/1999/xlink" xml:space="preserve" xmlns:serif="http://www.serif.com/" style="fill-rule:evenodd;clip-rule:evenodd;stroke-linejoin:round;stroke-miterlimit:2;"><path d="M34.021,42.526c7.354,-9.054 14.874,-18.383 25.107,-24.29c3.985,-2.302 8.663,-4.066 13.195,-3.125c4.679,0.977 8.205,4.591 12.381,6.838c8.242,4.422 18.52,3.214 27.501,0.433c15.292,-4.737 28.669,-13.44 42.084,-22.089l-10.181,0.036c-11.409,7.277 -22.995,14.138 -35.965,18.157c-8.981,2.781 -19.259,3.989 -27.501,-0.434c-4.186,-2.246 -7.703,-5.86 -12.382,-6.837c-4.54,-0.941 -9.219,0.822 -13.194,3.124c-10.243,5.917 -17.753,15.246 -25.107,24.291c-7.355,9.045 -15.105,18.277 -25.58,23.804c-1.334,0.705 -2.725,1.331 -4.152,1.886l0.019,5.197c2.865,-0.755 5.646,-1.838 8.214,-3.187c10.466,-5.535 18.207,-14.75 25.561,-23.804Z" style="fill:url(#_Linear1);fill-rule:nonzero;"/><path d="M32.917,89.672c10.475,-5.527 18.206,-14.742 25.561,-23.796c7.354,-9.053 14.873,-18.383 25.107,-24.29c3.985,-2.302 8.663,-4.066 13.194,-3.124c4.679,0.976 8.206,4.591 12.382,6.837c8.242,4.422 18.52,3.215 27.501,0.434c21.371,-6.621 39.007,-20.988 58.232,-32.151c10.463,-6.076 22.212,-11.271 34.146,-13.557l-18.093,0.065c-7.018,2.579 -13.802,5.929 -20.125,9.596c-19.215,11.162 -36.86,25.53 -58.231,32.151c-8.982,2.781 -19.26,3.988 -27.501,-0.434c-4.186,-2.247 -7.703,-5.861 -12.382,-6.837c-4.541,-0.942 -9.219,0.822 -13.195,3.124c-10.242,5.916 -17.752,15.245 -25.116,24.299c-7.364,9.054 -15.086,18.269 -25.561,23.796c-8.652,4.562 -19.695,6.02 -28.524,2.345l0.006,1.712c9.291,6.245 22.557,5.133 32.599,-0.17Z" style="fill:url(#_Linear2);fill-rule:nonzero;"/><path d="M36.988,93.568c10.475,-5.527 18.207,-14.741 25.561,-23.795c7.355,-9.054 14.874,-18.384 25.108,-24.291c3.984,-2.302 8.663,-4.066 13.194,-3.124c4.679,0.976 8.205,4.591 12.382,6.837c8.241,4.422 18.519,3.215 27.501,0.434c21.371,-6.621 39.007,-20.988 58.231,-32.151c11.329,-6.576 24.164,-12.12 37.114,-14.064l-0.012,-3.414l-7.036,0.025c-11.934,2.286 -23.683,7.481 -34.137,13.557c-19.215,11.163 -36.861,25.53 -58.232,32.151c-8.981,2.781 -19.259,3.988 -27.501,-0.434c-4.185,-2.246 -7.703,-5.861 -12.382,-6.837c-4.54,-0.942 -9.218,0.822 -13.194,3.124c-10.243,5.907 -17.753,15.246 -25.107,24.29c-7.355,9.045 -15.096,18.269 -25.561,23.796c-10.042,5.294 -23.308,6.415 -32.599,0.17l0.002,0.514c0.935,0.883 1.878,1.749 2.896,2.526c9.321,7.185 23.307,6.213 33.772,0.686Z" style="fill:url(#_Linear3);fill-rule:nonzero;"/><path d="M29.94,38.639c7.354,-9.054 14.874,-18.383 25.107,-24.291c3.985,-2.302 8.664,-4.065 13.195,-3.124c4.679,0.977 8.205,4.591 12.382,6.837c8.241,4.422 18.519,3.215 27.501,0.434c12.979,-4.028 24.574,-10.889 35.974,-18.166l-10.347,0.037c-9.413,5.753 -19.087,10.949 -29.69,14.233c-8.981,2.781 -19.259,3.988 -27.501,-0.434c-4.185,-2.246 -7.702,-5.861 -12.381,-6.837c-4.541,-0.942 -9.219,0.822 -13.195,3.124c-10.243,5.916 -17.753,15.246 -25.107,24.291c-7.354,9.045 -15.105,18.268 -25.57,23.795c-0.037,0.018 -0.065,0.036 -0.101,0.054l0.02,5.719c1.427,-0.546 2.818,-1.18 4.152,-1.886c10.475,-5.518 18.207,-14.741 25.561,-23.786Z" style="fill:url(#_Linear4);fill-rule:nonzero;"/><path d="M42.173,50.31c7.355,-9.054 14.874,-18.384 25.107,-24.291c3.985,-2.302 8.664,-4.066 13.195,-3.124c4.679,0.976 8.205,4.591 12.382,6.837c8.241,4.422 18.519,3.215 27.501,0.434c19.98,-6.191 36.708,-19.162 54.514,-29.947l-10.393,0.037c-15.513,9.846 -30.589,20.559 -48.193,26.014c-8.981,2.781 -19.259,3.988 -27.501,-0.434c-4.185,-2.246 -7.703,-5.861 -12.382,-6.837c-4.54,-0.942 -9.219,0.822 -13.194,3.124c-10.243,5.916 -17.753,15.245 -25.107,24.29c-7.355,9.045 -15.096,18.278 -25.57,23.805c-3.765,1.982 -7.974,3.38 -12.269,4.025l0.015,4.266c5.652,-0.198 11.382,-1.797 16.334,-4.404c10.466,-5.527 18.207,-14.742 25.561,-23.795Z" style="fill:url(#_Linear5);fill-rule:nonzero;"/><path d="M38.092,46.422c7.355,-9.054 14.874,-18.383 25.108,-24.29c3.984,-2.302 8.663,-4.066 13.194,-3.124c4.679,0.976 8.206,4.59 12.382,6.837c8.242,4.422 18.52,3.215 27.501,0.433c17.603,-5.454 32.68,-16.167 48.192,-26.013l-10.199,0.036c-13.414,8.65 -26.792,17.353 -42.074,22.09c-8.981,2.781 -19.259,3.989 -27.501,-0.434c-4.185,-2.246 -7.703,-5.86 -12.382,-6.837c-4.54,-0.941 -9.218,0.822 -13.194,3.125c-10.243,5.916 -17.753,15.245 -25.107,24.29c-7.355,9.045 -15.086,18.26 -25.552,23.786c-2.568,1.358 -5.349,2.441 -8.214,3.196l0.017,4.726c4.295,-0.645 8.504,-2.043 12.269,-4.025c10.474,-5.527 18.206,-14.751 25.56,-23.796Z" style="fill:url(#_Linear6);fill-rule:nonzero;"/><path d="M24.765,81.888c10.474,-5.526 18.206,-14.741 25.56,-23.795c7.355,-9.054 14.874,-18.383 25.108,-24.29c3.984,-2.303 8.663,-4.066 13.203,-3.125c4.679,0.977 8.206,4.591 12.382,6.837c8.242,4.423 18.52,3.215 27.501,0.434c21.371,-6.621 39.007,-20.988 58.232,-32.15c3.451,-2.008 7.05,-3.919 10.741,-5.661l-11.776,0.042c-1.031,0.562 -2.043,1.143 -3.046,1.723c-19.215,11.162 -36.861,25.529 -58.232,32.15c-8.981,2.781 -19.259,3.989 -27.501,-0.434c-4.185,-2.246 -7.702,-5.86 -12.381,-6.837c-4.541,-0.941 -9.219,0.822 -13.195,3.124c-10.243,5.917 -17.753,15.246 -25.107,24.291c-7.354,9.045 -15.095,18.277 -25.57,23.804c-6.139,3.241 -13.483,4.917 -20.393,4.294l0.012,3.246c7.993,1.869 17.098,0.24 24.462,-3.653Z" style="fill:url(#_Linear7);fill-rule:nonzero;"/><path d="M21.788,30.855c7.354,-9.054 14.874,-18.383 25.107,-24.29c3.985,-2.302 8.663,-4.066 13.195,-3.124c4.679,0.976 8.205,4.59 12.381,6.837c8.242,4.422 18.52,3.215 27.501,0.434c8.134,-2.521 15.711,-6.158 23.046,-10.308l-11.454,0.041c-5.035,2.501 -10.219,4.684 -15.654,6.37c-8.981,2.781 -19.259,3.989 -27.501,-0.433c-3.188,-1.709 -5.991,-4.218 -9.224,-5.749l-12.302,0.044c-1.409,0.555 -2.771,1.251 -4.059,1.992c-10.243,5.907 -17.753,15.245 -25.108,24.29c-5.352,6.582 -10.899,13.252 -17.556,18.526l0.024,6.819c8.52,-5.582 15.204,-13.578 21.604,-21.449Z" style="fill:url(#_Linear8);fill-rule:nonzero;"/><path d="M28.836,85.785c10.475,-5.527 18.207,-14.742 25.561,-23.796c7.354,-9.054 14.874,-18.383 25.107,-24.29c3.985,-2.302 8.673,-4.075 13.204,-3.133c4.679,0.976 8.205,4.59 12.382,6.837c8.241,4.422 18.519,3.215 27.501,0.434c21.371,-6.621 39.007,-20.988 58.231,-32.151c6.323,-3.667 13.107,-7.017 20.125,-9.596l-13.455,0.048c-3.691,1.742 -7.29,3.653 -10.741,5.661c-19.215,11.162 -36.861,25.529 -58.232,32.15c-8.981,2.781 -19.259,3.989 -27.501,-0.434c-4.185,-2.246 -7.703,-5.86 -12.382,-6.837c-4.54,-0.941 -9.219,0.822 -13.194,3.125c-10.243,5.916 -17.753,15.245 -25.107,24.29c-7.355,9.045 -15.105,18.269 -25.57,23.795c-7.364,3.884 -16.469,5.522 -24.462,3.653l0.009,2.589c8.829,3.675 19.881,2.217 28.524,-2.345Z" style="fill:url(#_Linear9);fill-rule:nonzero;"/><path d="M20.684,78.001c10.475,-5.527 18.206,-14.741 25.561,-23.795c7.354,-9.054 14.873,-18.383 25.107,-24.291c3.985,-2.302 8.663,-4.066 13.194,-3.124c4.679,0.976 8.206,4.591 12.382,6.837c8.242,4.422 18.52,3.215 27.501,0.434c21.371,-6.621 39.007,-20.988 58.232,-32.151c1.003,-0.58 2.024,-1.16 3.046,-1.722l-10.835,0.039c-17.806,10.785 -34.525,23.747 -54.514,29.947c-8.982,2.781 -19.26,3.988 -27.501,-0.434c-4.186,-2.246 -7.703,-5.861 -12.382,-6.837c-4.541,-0.942 -9.219,0.822 -13.195,3.124c-10.242,5.916 -17.752,15.245 -25.107,24.29c-7.354,9.045 -15.095,18.26 -25.561,23.787c-4.942,2.607 -10.682,4.206 -16.334,4.404l0.013,3.786c6.91,0.623 14.254,-1.053 20.393,-4.294Z" style="fill:url(#_Linear10);fill-rule:nonzero;"/><path d="M25.869,34.743c7.354,-9.054 14.873,-18.384 25.107,-24.291c3.985,-2.302 8.663,-4.066 13.194,-3.124c4.679,0.976 8.206,4.591 12.382,6.837c8.242,4.422 18.52,3.215 27.501,0.434c10.594,-3.284 20.276,-8.471 29.69,-14.233l-10.725,0.038c-7.335,4.15 -14.912,7.787 -23.027,10.299c-8.982,2.781 -19.26,3.988 -27.501,-0.434c-4.186,-2.246 -7.703,-5.861 -12.382,-6.837c-4.541,-0.942 -9.219,0.822 -13.195,3.124c-10.242,5.916 -17.752,15.245 -25.107,24.29c-6.418,7.88 -13.102,15.876 -21.622,21.467l0.023,6.279c0.036,-0.018 0.064,-0.036 0.101,-0.054c10.465,-5.527 18.206,-14.742 25.561,-23.795Z" style="fill:url(#_Linear11);fill-rule:nonzero;"/><path d="M17.716,26.959c7.355,-9.054 14.874,-18.383 25.108,-24.299c1.288,-0.741 2.65,-1.428 4.059,-1.992l-11.223,0.04c-8.702,5.911 -15.423,14.253 -22.024,22.364c-4.224,5.203 -8.585,10.459 -13.503,15.035l0.027,7.378c6.657,-5.274 12.204,-11.944 17.556,-18.526Z" style="fill:url(#_Linear12);fill-rule:nonzero;"/><path d="M162.165,95.887c-4.186,-2.246 -7.703,-5.861 -12.382,-6.837c-4.54,-0.942 -9.219,0.822 -13.194,3.124c-10.243,5.916 -17.753,15.246 -25.108,24.291c-7.354,9.045 -15.086,18.268 -25.56,23.795c-1.574,0.83 -3.232,1.563 -4.945,2.173l12.071,-0.044c8.953,-5.601 15.886,-13.89 22.506,-22.037c7.354,-9.054 14.874,-18.383 25.107,-24.29c3.985,-2.303 8.663,-4.066 13.195,-3.125c4.679,0.977 8.205,4.591 12.381,6.837c8.242,4.423 18.52,3.215 27.501,0.434c15.494,-4.8 29.028,-13.672 42.617,-22.437l-0.023,-6.5c-14.979,9.568 -29.642,19.766 -46.674,25.041c-8.982,2.79 -19.26,3.997 -27.492,-0.425Z" style="fill:url(#_Linear13);fill-rule:nonzero;"/><path d="M0,0.844l0.012,3.37c0.927,-1.129 1.864,-2.259 2.81,-3.38l-2.822,0.01Z" style="fill:url(#_Linear14);fill-rule:nonzero;"/><path d="M166.236,99.783c-4.185,-2.246 -7.702,-5.86 -12.381,-6.837c-4.541,-0.941 -9.219,0.822 -13.195,3.124c-10.243,5.917 -17.753,15.246 -25.107,24.291c-6.62,8.146 -13.553,16.427 -22.505,22.037l9.553,-0.034c6.428,-5.211 11.827,-11.695 17.033,-18.107c7.354,-9.054 14.873,-18.383 25.107,-24.29c3.985,-2.303 8.663,-4.066 13.194,-3.125c4.679,0.977 8.206,4.591 12.382,6.837c8.242,4.423 18.52,3.215 27.501,0.434c13.956,-4.324 26.314,-11.942 38.569,-19.825l-0.023,-6.509c-13.59,8.766 -27.123,17.638 -42.617,22.438c-8.991,2.781 -19.269,3.98 -27.511,-0.434Z" style="fill:url(#_Linear15);fill-rule:nonzero;"/><path d="M81.87,0.552l-16.423,0.058c5.224,1.365 10.931,1.07 16.423,-0.058Z" style="fill:url(#_Linear16);fill-rule:nonzero;"/><path d="M64.328,2.485c-1.035,-0.555 -2.033,-1.198 -3.022,-1.86l-2.13,0.008c3.224,1.531 6.036,4.04 9.224,5.749c8.241,4.422 18.519,3.214 27.501,0.433c5.426,-1.677 10.619,-3.86 15.654,-6.37l-12.864,0.046c-2.247,0.895 -4.531,1.71 -6.862,2.428c-8.981,2.781 -19.259,3.989 -27.501,-0.434Z" style="fill:url(#_Linear17);fill-rule:nonzero;"/><path d="M13.636,23.072c6.601,-8.111 13.322,-16.453 22.024,-22.355l-9.203,0.033c-6.334,5.396 -11.65,11.987 -16.893,18.426c-3.03,3.735 -6.133,7.488 -9.459,11.012l0.028,7.919c4.927,-4.576 9.279,-9.832 13.503,-15.035Z" style="fill:url(#_Linear18);fill-rule:nonzero;"/><path d="M18.13,0.78l-7.802,0.027c-3.104,3.426 -6.024,7.028 -8.916,10.585c-0.459,0.56 -0.909,1.121 -1.368,1.681l0.031,8.726c1.846,-2.144 3.636,-4.332 5.408,-6.511c4.031,-4.953 8.107,-9.996 12.647,-14.508Z" style="fill:url(#_Linear19);fill-rule:nonzero;"/><path d="M10.319,0.807l-7.497,0.027c-0.946,1.121 -1.883,2.251 -2.81,3.38l0.032,8.85c0.459,-0.56 0.909,-1.12 1.368,-1.672c2.892,-3.557 5.812,-7.159 8.907,-10.585Z" style="fill:url(#_Linear20);fill-rule:nonzero;"/><path d="M64.328,2.485c8.242,4.423 18.52,3.215 27.501,0.434c2.331,-0.718 4.615,-1.533 6.862,-2.428l-16.821,0.061c-5.501,1.128 -11.199,1.423 -16.423,0.058l-4.132,0.015c0.98,0.662 1.978,1.305 3.013,1.86Z" style="fill:url(#_Linear21);fill-rule:nonzero;"/><path d="M26.448,0.75l-8.318,0.03c-4.54,4.512 -8.616,9.555 -12.647,14.508c-1.772,2.179 -3.562,4.367 -5.408,6.511l0.03,8.389c3.326,-3.515 6.42,-7.277 9.459,-11.012c5.243,-6.439 10.559,-13.03 16.884,-18.426Z" style="fill:url(#_Linear22);fill-rule:nonzero;"/><path d="M161.036,115.525c3.985,-2.302 8.663,-4.066 13.195,-3.125c4.679,0.977 8.205,4.591 12.381,6.838c8.242,4.422 18.52,3.214 27.502,0.433c7.866,-2.44 15.231,-5.925 22.345,-9.914l-0.022,-6.225c-8.383,4.96 -17.036,9.345 -26.404,12.252c-8.982,2.781 -19.26,3.988 -27.501,-0.434c-4.186,-2.246 -7.703,-5.86 -12.382,-6.837c-4.541,-0.941 -9.219,0.822 -13.194,3.124c-10.243,5.916 -17.753,15.246 -25.108,24.291c-1.726,2.125 -3.47,4.251 -5.27,6.35l7.359,-0.026c0.661,-0.809 1.322,-1.619 1.983,-2.428c7.363,-9.054 14.873,-18.383 25.116,-24.299Z" style="fill:url(#_Linear23);fill-rule:nonzero;"/><path d="M156.956,111.637c3.984,-2.302 8.663,-4.065 13.194,-3.124c4.679,0.977 8.205,4.591 12.382,6.837c8.241,4.422 18.519,3.215 27.501,0.434c9.368,-2.907 18.021,-7.292 26.404,-12.252l-0.022,-6.341c-9.653,5.95 -19.575,11.332 -30.463,14.706c-8.981,2.781 -19.259,3.988 -27.501,-0.434c-4.186,-2.246 -7.703,-5.861 -12.382,-6.837c-4.54,-0.942 -9.219,0.822 -13.194,3.124c-10.243,5.916 -17.753,15.246 -25.107,24.29c-2.819,3.469 -5.693,6.964 -8.761,10.265l7.571,-0.027c1.8,-2.09 3.544,-4.225 5.27,-6.35c7.355,-9.045 14.865,-18.383 25.108,-24.291Z" style="fill:url(#_Linear24);fill-rule:nonzero;"/><path d="M165.108,119.421c3.985,-2.302 8.663,-4.066 13.194,-3.124c4.679,0.976 8.206,4.59 12.382,6.837c8.242,4.422 18.52,3.215 27.501,0.433c6.384,-1.973 12.433,-4.646 18.296,-7.718l-0.022,-6.092c-7.123,3.989 -14.479,7.474 -22.345,9.914c-8.982,2.781 -19.26,3.989 -27.502,-0.433c-4.185,-2.247 -7.702,-5.861 -12.381,-6.838c-4.541,-0.941 -9.219,0.823 -13.195,3.125c-10.243,5.916 -17.753,15.245 -25.107,24.29c-0.661,0.809 -1.322,1.619 -1.983,2.428l7.267,-0.026c6.978,-8.565 14.213,-17.21 23.895,-22.796Z" style="fill:url(#_Linear25);fill-rule:nonzero;"/><path d="M50.247,139.208c-6.642,-3.204 -14.527,-0.542 -20.931,3.418l12.643,-0.045c3.703,-1.077 7.502,-1.304 11.02,-0.039l1.946,-0.007c-1.425,-1.29 -2.932,-2.482 -4.678,-3.327Z" style="fill:url(#_Linear26);fill-rule:nonzero;"/><path d="M169.189,123.308c3.984,-2.302 8.663,-4.066 13.194,-3.124c4.679,0.976 8.205,4.591 12.382,6.837c8.241,4.422 18.519,3.215 27.501,0.434c4.919,-1.525 9.652,-3.467 14.237,-5.673l-0.022,-5.933c-5.863,3.072 -11.912,5.736 -18.296,7.718c-8.981,2.782 -19.259,3.989 -27.501,-0.433c-4.186,-2.247 -7.703,-5.861 -12.382,-6.837c-4.54,-0.942 -9.219,0.822 -13.194,3.124c-9.682,5.586 -16.927,14.231 -23.905,22.805l7.295,-0.026c6.033,-7.222 12.482,-14.154 20.691,-18.892Z" style="fill:url(#_Linear27);fill-rule:nonzero;"/><path d="M152.884,107.741c3.985,-2.302 8.663,-4.066 13.194,-3.124c4.679,0.976 8.206,4.591 12.382,6.837c8.242,4.422 18.52,3.215 27.501,0.434c10.888,-3.373 20.801,-8.756 30.463,-14.706l-0.023,-6.429c-10.94,6.93 -22.094,13.39 -34.511,17.239c-8.982,2.781 -19.26,3.988 -27.501,-0.434c-4.186,-2.246 -7.703,-5.861 -12.382,-6.837c-4.541,-0.942 -9.219,0.822 -13.195,3.124c-10.242,5.916 -17.752,15.245 -25.107,24.29c-3.966,4.883 -8.043,9.81 -12.601,14.19l7.921,-0.029c3.068,-3.301 5.942,-6.796 8.761,-10.264c7.345,-9.045 14.855,-18.375 25.098,-24.291Z" style="fill:url(#_Linear28);fill-rule:nonzero;"/><path d="M123.696,128.144c7.354,-9.054 14.874,-18.383 25.107,-24.29c3.985,-2.302 8.663,-4.066 13.195,-3.124c4.679,0.976 8.205,4.59 12.381,6.837c8.242,4.422 18.52,3.215 27.502,0.434c12.417,-3.849 23.571,-10.31 34.511,-17.239l-0.024,-6.482c-12.246,7.883 -24.613,15.5 -38.568,19.824c-8.982,2.782 -19.26,3.989 -27.501,-0.433c-4.186,-2.247 -7.703,-5.861 -12.382,-6.838c-4.541,-0.941 -9.219,0.823 -13.195,3.125c-10.242,5.916 -17.752,15.245 -25.107,24.29c-5.206,6.413 -10.605,12.905 -17.032,18.107l8.502,-0.03c4.568,-4.362 8.645,-9.298 12.611,-14.181Z" style="fill:url(#_Linear29);fill-rule:nonzero;"/><path d="M198.688,135.76c4.273,0.889 7.585,3.99 11.309,6.22l26.587,-0.095l-0.013,-3.423c-0.69,0.233 -1.381,0.457 -2.072,0.672c-8.981,2.782 -19.259,3.989 -27.501,-0.433c-4.186,-2.247 -7.703,-5.861 -12.382,-6.838c-4.54,-0.941 -9.219,0.823 -13.194,3.125c-3.507,2.025 -6.698,4.449 -9.667,7.129l8.862,-0.032c1.564,-1.15 3.183,-2.228 4.876,-3.201c3.976,-2.302 8.663,-4.075 13.195,-3.124Z" style="fill:url(#_Linear30);fill-rule:nonzero;"/><path d="M173.26,127.204c3.985,-2.302 8.663,-4.066 13.195,-3.124c4.679,0.976 8.205,4.591 12.381,6.837c8.242,4.422 18.52,3.215 27.501,0.434c3.492,-1.077 6.871,-2.366 10.186,-3.814l-0.02,-5.755c-4.594,2.215 -9.318,4.148 -14.237,5.673c-8.982,2.781 -19.26,3.988 -27.501,-0.434c-4.186,-2.246 -7.703,-5.861 -12.382,-6.837c-4.54,-0.942 -9.219,0.822 -13.194,3.124c-8.2,4.738 -14.658,11.67 -20.682,18.892l7.433,-0.027c5.088,-5.764 10.62,-11.096 17.32,-14.969Z" style="fill:url(#_Linear31);fill-rule:nonzero;"/><path d="M41.959,142.581l11.02,-0.039c-3.518,-1.265 -7.317,-1.038 -11.02,0.039Z" style="fill:url(#_Linear32);fill-rule:nonzero;"/><path d="M202.768,139.647c-4.051,-0.846 -8.205,0.473 -11.887,2.401l17.318,-0.062c-1.691,-1.049 -3.465,-1.929 -5.431,-2.339Z" style="fill:url(#_Linear33);fill-rule:nonzero;"/><path d="M202.768,139.647c1.975,0.41 3.74,1.29 5.431,2.339l1.808,-0.006c-3.734,-2.239 -7.037,-5.331 -11.31,-6.22c-4.541,-0.942 -9.219,0.822 -13.195,3.124c-1.693,0.981 -3.321,2.051 -4.876,3.201l10.273,-0.037c3.664,-1.928 7.818,-3.247 11.869,-2.401Z" style="fill:url(#_Linear34);fill-rule:nonzero;"/><path d="M194.616,131.863c4.679,0.977 8.205,4.591 12.382,6.838c8.242,4.422 18.52,3.215 27.501,0.433c0.691,-0.215 1.382,-0.439 2.072,-0.672l-0.019,-5.365c-2.007,0.779 -4.052,1.495 -6.125,2.141c-8.981,2.781 -19.259,3.989 -27.501,-0.434c-4.185,-2.246 -7.703,-5.86 -12.381,-6.837c-4.541,-0.941 -9.219,0.822 -13.195,3.125c-5.154,2.971 -9.612,6.818 -13.71,11.054l8.124,-0.029c2.969,-2.68 6.161,-5.104 9.667,-7.129c3.966,-2.302 8.645,-4.066 13.185,-3.125Z" style="fill:url(#_Linear35);fill-rule:nonzero;"/><path d="M41.069,97.455c10.475,-5.526 18.207,-14.741 25.561,-23.795c7.354,-9.054 14.874,-18.383 25.107,-24.29c3.985,-2.303 8.663,-4.066 13.195,-3.125c4.679,0.977 8.205,4.591 12.381,6.837c8.242,4.423 18.52,3.215 27.502,0.434c21.371,-6.621 39.007,-20.988 58.231,-32.15c10.142,-5.889 21.494,-10.949 33.059,-13.341l-0.017,-4.611c-12.949,1.935 -25.785,7.479 -37.113,14.064c-19.216,11.163 -36.861,25.53 -58.232,32.151c-8.981,2.781 -19.259,3.988 -27.501,-0.434c-4.186,-2.246 -7.703,-5.861 -12.382,-6.837c-4.54,-0.942 -9.219,0.822 -13.194,3.124c-10.243,5.907 -17.753,15.237 -25.117,24.291c-7.363,9.054 -15.086,18.268 -25.561,23.795c-10.474,5.527 -24.46,6.508 -33.772,-0.677c-1.018,-0.786 -1.961,-1.652 -2.896,-2.526l0.001,0.213c2.432,1.906 4.506,4.311 6.975,6.209c9.313,7.176 23.299,6.195 33.773,0.668Z" style="fill:url(#_Linear36);fill-rule:nonzero;"/><path d="M177.341,131.092c3.985,-2.303 8.663,-4.066 13.194,-3.125c4.679,0.977 8.206,4.591 12.382,6.838c8.242,4.422 18.52,3.214 27.501,0.433c2.073,-0.646 4.117,-1.362 6.125,-2.141l-0.02,-5.56c-3.315,1.448 -6.694,2.728 -10.186,3.814c-8.981,2.781 -19.259,3.988 -27.501,-0.434c-4.185,-2.246 -7.702,-5.861 -12.381,-6.837c-4.541,-0.941 -9.219,0.822 -13.195,3.124c-6.709,3.873 -12.241,9.205 -17.33,14.969l7.691,-0.027c4.107,-4.236 8.566,-8.074 13.72,-11.054Z" style="fill:url(#_Linear37);fill-rule:nonzero;"/><path d="M21.709,111.97c3.926,1.902 6.604,5.519 10.035,8.158c9.321,7.186 23.307,6.204 33.773,0.678c10.465,-5.527 18.206,-14.742 25.561,-23.796c7.354,-9.053 14.873,-18.383 25.107,-24.29c3.985,-2.302 8.663,-4.066 13.194,-3.124c4.679,0.976 8.206,4.591 12.382,6.837c8.242,4.422 18.52,3.215 27.501,0.434c21.371,-6.621 39.007,-20.988 58.232,-32.151c2.816,-1.633 5.724,-3.213 8.716,-4.678l-0.021,-5.808c-4.41,1.984 -8.69,4.216 -12.767,6.59c-19.215,11.162 -36.86,25.529 -58.231,32.15c-8.982,2.782 -19.26,3.989 -27.501,-0.433c-4.186,-2.247 -7.703,-5.861 -12.382,-6.837c-4.541,-0.942 -9.219,0.822 -13.195,3.124c-10.242,5.916 -17.753,15.245 -25.107,24.29c-7.354,9.045 -15.086,18.269 -25.561,23.796c-10.474,5.526 -24.46,6.507 -33.773,-0.678c-3.43,-2.648 -6.108,-6.265 -10.034,-8.158c-5.414,-2.614 -11.652,-1.324 -17.25,1.383l0.023,6.155c6.468,-4.076 14.527,-6.916 21.298,-3.642Z" style="fill:url(#_Linear38);fill-rule:nonzero;"/><path d="M9.485,100.291c3.926,1.901 6.604,5.519 10.035,8.158c9.322,7.185 23.308,6.204 33.773,0.677c10.465,-5.527 18.207,-14.741 25.561,-23.795c7.354,-9.054 14.873,-18.383 25.107,-24.291c3.985,-2.302 8.663,-4.065 13.195,-3.124c4.679,0.977 8.205,4.591 12.381,6.837c8.242,4.422 18.52,3.215 27.501,0.434c21.371,-6.621 39.007,-20.988 58.232,-32.151c6.543,-3.801 13.595,-7.258 20.88,-9.873l-0.019,-5.25c-8.723,2.709 -17.184,6.73 -24.942,11.236c-19.215,11.163 -36.86,25.53 -58.231,32.151c-8.982,2.781 -19.26,3.988 -27.501,-0.434c-4.186,-2.246 -7.703,-5.861 -12.382,-6.837c-4.541,-0.942 -9.219,0.822 -13.195,3.124c-10.242,5.916 -17.753,15.246 -25.107,24.299c-7.354,9.054 -15.086,18.269 -25.561,23.796c-10.474,5.526 -24.46,6.508 -33.772,-0.678c-3.431,-2.648 -6.109,-6.265 -10.035,-8.158c-1.626,-0.783 -3.334,-1.22 -5.068,-1.365l0.014,4.026c3.125,-0.455 6.243,-0.173 9.134,1.218Z" style="fill:url(#_Linear39);fill-rule:nonzero;"/><path d="M17.638,108.074c3.926,1.902 6.604,5.519 10.034,8.158c9.322,7.185 23.308,6.204 33.773,0.678c10.466,-5.527 18.207,-14.742 25.561,-23.796c7.354,-9.054 14.874,-18.383 25.107,-24.29c3.985,-2.302 8.664,-4.066 13.195,-3.124c4.679,0.976 8.205,4.59 12.382,6.837c8.241,4.422 18.519,3.215 27.501,0.433c21.371,-6.621 39.007,-20.988 58.231,-32.15c4.086,-2.374 8.357,-4.606 12.767,-6.59l-0.02,-5.622c-5.847,2.37 -11.499,5.228 -16.828,8.325c-19.215,11.162 -36.86,25.529 -58.231,32.15c-8.981,2.781 -19.259,3.989 -27.501,-0.434c-4.186,-2.246 -7.703,-5.86 -12.382,-6.837c-4.54,-0.941 -9.219,0.822 -13.194,3.125c-10.234,5.907 -17.744,15.245 -25.098,24.29c-7.355,9.045 -15.087,18.269 -25.561,23.795c-10.475,5.527 -24.461,6.508 -33.773,-0.677c-3.431,-2.648 -6.109,-6.266 -10.035,-8.158c-4.138,-1.998 -8.748,-1.716 -13.188,-0.263l0.02,5.542c5.578,-2.716 11.817,-4.006 17.24,-1.392Z" style="fill:url(#_Linear40);fill-rule:nonzero;"/><path d="M13.557,104.187c3.926,1.901 6.604,5.519 10.035,8.158c9.321,7.185 23.307,6.204 33.773,0.677c10.465,-5.526 18.206,-14.741 25.56,-23.795c7.355,-9.054 14.874,-18.383 25.108,-24.29c3.984,-2.303 8.663,-4.066 13.194,-3.125c4.679,0.977 8.206,4.591 12.382,6.837c8.242,4.423 18.52,3.215 27.501,0.434c21.371,-6.621 39.007,-20.988 58.231,-32.15c5.32,-3.097 10.981,-5.955 16.828,-8.325l-0.019,-5.445c-7.285,2.615 -14.337,6.072 -20.88,9.873c-19.215,11.163 -36.861,25.53 -58.232,32.151c-8.981,2.781 -19.259,3.988 -27.501,-0.434c-4.185,-2.246 -7.702,-5.86 -12.381,-6.837c-4.541,-0.941 -9.219,0.822 -13.195,3.124c-10.233,5.916 -17.744,15.246 -25.107,24.3c-7.364,9.054 -15.086,18.268 -25.561,23.795c-10.475,5.527 -24.461,6.508 -33.773,-0.677c-3.431,-2.648 -6.109,-6.266 -10.035,-8.158c-2.882,-1.391 -6,-1.682 -9.134,-1.227l0.018,4.86c4.439,-1.462 9.059,-1.744 13.188,0.254Z" style="fill:url(#_Linear41);fill-rule:nonzero;"/><path d="M15.449,104.562c9.321,7.185 23.307,6.203 33.773,0.677c10.465,-5.527 18.206,-14.742 25.56,-23.796c7.355,-9.053 14.865,-18.383 25.108,-24.29c3.984,-2.302 8.663,-4.066 13.194,-3.124c4.679,0.976 8.205,4.591 12.382,6.837c8.241,4.422 18.519,3.215 27.501,0.434c21.371,-6.621 39.007,-20.988 58.231,-32.151c7.758,-4.506 16.219,-8.527 24.942,-11.236l-0.018,-5.046c-10.153,2.635 -20.041,7.193 -28.995,12.395c-19.215,11.162 -36.861,25.529 -58.232,32.15c-8.981,2.782 -19.259,3.989 -27.501,-0.433c-4.185,-2.247 -7.703,-5.861 -12.381,-6.838c-4.541,-0.941 -9.219,0.823 -13.195,3.125c-10.243,5.916 -17.753,15.245 -25.107,24.29c-7.355,9.045 -15.086,18.269 -25.561,23.795c-10.475,5.527 -24.461,6.508 -33.773,-0.677c-3.431,-2.648 -6.109,-6.265 -10.035,-8.158c-0.332,-0.158 -0.665,-0.308 -1.006,-0.44l0.01,2.962c1.734,0.145 3.442,0.582 5.068,1.365c3.917,1.902 6.604,5.51 10.035,8.159Z" style="fill:url(#_Linear42);fill-rule:nonzero;"/><path d="M11.368,100.674c9.321,7.185 23.307,6.204 33.773,0.678c10.465,-5.527 18.206,-14.742 25.561,-23.796c7.354,-9.054 14.873,-18.383 25.107,-24.29c3.985,-2.302 8.663,-4.066 13.194,-3.125c4.679,0.977 8.206,4.591 12.382,6.838c8.242,4.422 18.52,3.215 27.501,0.433c21.371,-6.621 39.007,-20.988 58.232,-32.15c8.954,-5.202 18.842,-9.751 28.995,-12.395l-0.017,-4.842c-11.565,2.383 -22.918,7.452 -33.059,13.341c-19.215,11.162 -36.861,25.529 -58.232,32.15c-8.981,2.781 -19.259,3.989 -27.501,-0.433c-4.185,-2.247 -7.703,-5.861 -12.381,-6.838c-4.541,-0.941 -9.219,0.823 -13.195,3.125c-10.243,5.916 -17.753,15.245 -25.107,24.29c-7.355,9.045 -15.086,18.269 -25.561,23.795c-10.475,5.527 -24.461,6.508 -33.773,-0.677c-2.46,-1.898 -4.543,-4.302 -6.966,-6.209l0.005,1.498c0.342,0.132 0.674,0.273 1.007,0.44c3.926,1.902 6.604,5.519 10.035,8.167Z" style="fill:url(#_Linear43);fill-rule:nonzero;"/><path d="M38.014,127.537c3.926,1.902 6.604,5.519 10.035,8.158c9.321,7.186 23.307,6.204 33.772,0.678c10.466,-5.527 18.207,-14.742 25.561,-23.796c7.355,-9.053 14.874,-18.383 25.107,-24.29c3.985,-2.302 8.664,-4.066 13.195,-3.124c4.679,0.976 8.205,4.59 12.382,6.837c8.241,4.422 18.519,3.215 27.501,0.434c18.561,-5.751 34.308,-17.345 50.723,-27.61l-0.023,-6.385c-17.898,10.821 -34.69,23.881 -54.781,30.098c-8.981,2.782 -19.259,3.989 -27.501,-0.433c-4.186,-2.247 -7.703,-5.861 -12.382,-6.837c-4.54,-0.942 -9.219,0.822 -13.194,3.124c-10.243,5.916 -17.753,15.245 -25.108,24.29c-7.354,9.045 -15.076,18.278 -25.551,23.804c-10.475,5.527 -24.461,6.508 -33.773,-0.677c-3.431,-2.648 -6.109,-6.265 -10.035,-8.158c-7.408,-3.574 -16.35,0.156 -23.074,4.818c-3.44,2.389 -6.815,5.097 -10.385,7.318l0.022,6.119c5.146,-2.413 9.725,-6.269 14.434,-9.55c6.725,-4.67 15.675,-8.392 23.075,-4.818Z" style="fill:url(#_Linear44);fill-rule:nonzero;"/><path d="M42.094,131.425c3.927,1.901 6.605,5.518 10.035,8.158c1.563,1.2 3.254,2.178 5.037,2.935l23.801,-0.085c1.704,-0.61 3.361,-1.343 4.944,-2.173c10.475,-5.527 18.207,-14.742 25.561,-23.795c7.355,-9.054 14.874,-18.384 25.107,-24.291c3.985,-2.302 8.664,-4.066 13.195,-3.124c4.679,0.976 8.205,4.591 12.382,6.837c8.241,4.422 18.519,3.215 27.501,0.434c17.032,-5.275 31.695,-15.473 46.674,-25.042l-0.023,-6.455c-16.415,10.265 -32.161,21.859 -50.723,27.61c-8.981,2.781 -19.259,3.988 -27.501,-0.434c-4.185,-2.247 -7.703,-5.861 -12.382,-6.837c-4.54,-0.942 -9.219,0.822 -13.194,3.124c-10.243,5.916 -17.753,15.245 -25.107,24.29c-7.355,9.045 -15.086,18.269 -25.561,23.796c-10.475,5.526 -24.461,6.508 -33.773,-0.678c-3.431,-2.648 -6.109,-6.265 -10.035,-8.158c-7.409,-3.574 -16.35,0.156 -23.074,4.818c-4.71,3.272 -9.298,7.137 -14.435,9.549l0.003,0.825l9.48,-0.034c3.073,-2.033 6.025,-4.358 9.033,-6.444c6.696,-4.67 15.647,-8.4 23.055,-4.826Z" style="fill:url(#_Linear45);fill-rule:nonzero;"/><path d="M25.79,115.858c3.926,1.901 6.604,5.519 10.035,8.158c9.321,7.185 23.307,6.204 33.773,0.677c10.465,-5.527 18.206,-14.741 25.56,-23.795c7.355,-9.054 14.874,-18.383 25.108,-24.291c3.984,-2.302 8.663,-4.066 13.194,-3.124c4.679,0.976 8.206,4.591 12.382,6.837c8.242,4.422 18.52,3.215 27.501,0.434c21.371,-6.621 39.007,-20.988 58.232,-32.151c1.527,-0.883 3.083,-1.758 4.656,-2.597l-0.021,-5.977c-2.983,1.465 -5.891,3.045 -8.716,4.678c-19.216,11.163 -36.861,25.53 -58.232,32.151c-8.981,2.781 -19.259,3.988 -27.501,-0.434c-4.185,-2.246 -7.703,-5.861 -12.382,-6.837c-4.54,-0.942 -9.219,0.822 -13.194,3.124c-10.243,5.916 -17.753,15.246 -25.107,24.291c-7.355,9.045 -15.086,18.268 -25.561,23.795c-10.475,5.527 -24.461,6.508 -33.773,-0.677c-3.431,-2.648 -6.109,-6.266 -10.035,-8.158c-6.771,-3.275 -14.83,-0.435 -21.298,3.65l0.023,6.695c0.755,-0.553 1.518,-1.096 2.282,-1.631c6.715,-4.662 15.665,-8.392 23.074,-4.818Z" style="fill:url(#_Linear46);fill-rule:nonzero;"/><path d="M50.247,139.208c1.755,0.845 3.253,2.037 4.687,3.327l0.12,-0.001c-2.905,-2.508 -5.405,-5.532 -8.888,-7.213c-7.409,-3.574 -16.35,0.156 -23.074,4.818c-1.169,0.811 -2.337,1.667 -3.505,2.522l9.72,-0.035c6.413,-3.951 14.298,-6.622 20.94,-3.418Z" style="fill:url(#_Linear47);fill-rule:nonzero;"/><path d="M46.166,135.321c3.483,1.681 5.974,4.705 8.888,7.213l2.112,-0.007c-1.783,-0.766 -3.474,-1.735 -5.037,-2.935c-3.43,-2.649 -6.108,-6.266 -10.035,-8.158c-7.408,-3.574 -16.349,0.156 -23.074,4.818c-2.999,2.085 -5.951,4.41 -9.033,6.443l9.609,-0.034c1.169,-0.856 2.328,-1.702 3.505,-2.522c6.715,-4.671 15.666,-8.392 23.065,-4.818Z" style="fill:url(#_Linear48);fill-rule:nonzero;"/><path d="M29.861,119.754c3.927,1.901 6.605,5.519 10.035,8.158c9.322,7.185 23.308,6.204 33.773,0.677c10.466,-5.526 18.207,-14.741 25.561,-23.795c7.354,-9.054 14.874,-18.383 25.107,-24.29c3.985,-2.303 8.663,-4.066 13.195,-3.125c4.679,0.977 8.205,4.591 12.381,6.837c8.242,4.423 18.52,3.215 27.501,0.434c21.371,-6.621 39.008,-20.988 58.232,-32.15c0.203,-0.116 0.405,-0.232 0.607,-0.348l-0.021,-6.137c-1.574,0.839 -3.13,1.714 -4.657,2.597c-19.216,11.163 -36.861,25.53 -58.232,32.151c-8.981,2.781 -19.259,3.988 -27.501,-0.434c-4.186,-2.246 -7.703,-5.861 -12.382,-6.837c-4.54,-0.942 -9.219,0.822 -13.194,3.124c-10.243,5.916 -17.753,15.246 -25.108,24.291c-7.354,9.045 -15.086,18.268 -25.56,23.795c-10.475,5.527 -24.461,6.508 -33.773,-0.677c-3.431,-2.648 -6.109,-6.266 -10.035,-8.158c-7.409,-3.574 -16.35,0.156 -23.074,4.818c-0.764,0.526 -1.518,1.078 -2.282,1.631l0.025,6.846c2.125,-1.524 4.212,-3.11 6.328,-4.581c6.725,-4.68 15.675,-8.401 23.074,-4.827Z" style="fill:url(#_Linear49);fill-rule:nonzero;"/><path d="M33.942,123.641c3.926,1.902 6.604,5.519 10.035,8.158c9.321,7.185 23.307,6.204 33.773,0.678c10.465,-5.527 18.206,-14.742 25.561,-23.796c7.354,-9.054 14.873,-18.383 25.107,-24.29c3.985,-2.302 8.663,-4.066 13.194,-3.125c4.679,0.977 8.206,4.591 12.382,6.838c8.242,4.422 18.52,3.215 27.501,0.433c20.082,-6.226 36.874,-19.286 54.781,-30.098l-0.023,-6.287c-0.202,0.116 -0.404,0.232 -0.607,0.348c-19.215,11.162 -36.861,25.529 -58.232,32.15c-8.981,2.781 -19.259,3.989 -27.501,-0.434c-4.185,-2.246 -7.702,-5.86 -12.381,-6.837c-4.541,-0.941 -9.219,0.822 -13.195,3.125c-10.243,5.916 -17.753,15.245 -25.107,24.29c-7.354,9.045 -15.086,18.269 -25.552,23.795c-10.465,5.527 -24.46,6.508 -33.772,-0.677c-3.431,-2.648 -6.109,-6.266 -10.035,-8.158c-7.409,-3.574 -16.35,0.156 -23.075,4.818c-2.115,1.471 -4.203,3.057 -6.328,4.581l0.024,6.624c3.57,-2.221 6.945,-4.929 10.385,-7.318c6.706,-4.662 15.656,-8.392 23.065,-4.818Z" style="fill:url(#_Linear50);fill-rule:nonzero;"/><defs><linearGradient id="_Linear1" x1="0" y1="0" x2="1" y2="0" gradientUnits="userSpaceOnUse" gradientTransform="matrix(154.285,-0.551865,0.530685,148.364,0.122812,35.179)"><stop offset="0" style="stop-color:#ff503b;stop-opacity:1"/><stop offset="0.03" style="stop-color:#fb585f;stop-opacity:1"/><stop offset="0.07" style="stop-color:#f66289;stop-opacity:1"/><stop offset="0.11" style="stop-color:#f169ab;stop-opacity:1"/><stop offset="0.15" style="stop-color:#ee6fc6;stop-opacity:1"/><stop offset="0.19" style="stop-color:#ec74d9;stop-opacity:1"/><stop offset="0.23" style="stop-color:#ea76e4;stop-opacity:1"/><stop offset="0.28" style="stop-color:#ea77e8;stop-opacity:1"/><stop offset="0.67" style="stop-color:#9687da;stop-opacity:1"/><stop offset="0.89" style="stop-color:#6c7ecd;stop-opacity:1"/><stop offset="1" style="stop-color:#2f74be;stop-opacity:1"/></linearGradient><linearGradient id="_Linear2" x1="0" y1="0" x2="1" y2="0" gradientUnits="userSpaceOnUse" gradientTransform="matrix(229.039,-0.819251,0.78781,220.249,0.166882,47.4997)"><stop offset="0" style="stop-color:#8fc752;stop-opacity:1"/><stop offset="0.51" style="stop-color:#363180;stop-opacity:1"/><stop offset="1" style="stop-color:#f19441;stop-opacity:1"/></linearGradient><linearGradient id="_Linear3" x1="0" y1="0" x2="1" y2="0" gradientUnits="userSpaceOnUse" gradientTransform="matrix(236.076,-0.844424,0.812016,227.016,0.173785,49.4533)"><stop offset="0" style="stop-color:#66a0ff;stop-opacity:1"/><stop offset="0.01" style="stop-color:#659cfc;stop-opacity:1"/><stop offset="0.1" style="stop-color:#5e89ed;stop-opacity:1"/><stop offset="0.19" style="stop-color:#5a7ee4;stop-opacity:1"/><stop offset="0.28" style="stop-color:#597ae1;stop-opacity:1"/><stop offset="0.67" style="stop-color:#9624b3;stop-opacity:1"/><stop offset="0.89" style="stop-color:#7e214b;stop-opacity:1"/><stop offset="1" style="stop-color:#92452e;stop-opacity:1"/></linearGradient><linearGradient id="_Linear4" x1="0" y1="0" x2="1" y2="0" gradientUnits="userSpaceOnUse" gradientTransform="matrix(144.1,-0.515433,0.495651,138.57,0.113513,32.5793)"><stop offset="0" style="stop-color:#fb37a0;stop-opacity:1"/><stop offset="0.51" style="stop-color:#1c45ed;stop-opacity:1"/><stop offset="1" style="stop-color:#8820f5;stop-opacity:1"/></linearGradient><linearGradient id="_Linear5" x1="0" y1="0" x2="1" y2="0" gradientUnits="userSpaceOnUse" gradientTransform="matrix(174.879,-0.625528,0.601521,168.168,0.138906,39.6785)"><stop offset="0" style="stop-color:#0072a9;stop-opacity:1"/><stop offset="0" style="stop-color:#533795;stop-opacity:1"/><stop offset="0.51" style="stop-color:#a53566;stop-opacity:1"/><stop offset="1" style="stop-color:#da3e21;stop-opacity:1"/></linearGradient><linearGradient id="_Linear6" x1="0" y1="0" x2="1" y2="0" gradientUnits="userSpaceOnUse" gradientTransform="matrix(164.485,-0.588347,0.565767,158.172,0.131272,37.5442)"><stop offset="0" style="stop-color:#0d7f24;stop-opacity:1"/><stop offset="1" style="stop-color:#ff0057;stop-opacity:1"/></linearGradient><linearGradient id="_Linear7" x1="0" y1="0" x2="1" y2="0" gradientUnits="userSpaceOnUse" gradientTransform="matrix(197.49,-0.706405,0.679294,189.911,0.152911,43.5938)"><stop offset="0" style="stop-color:#ab8c00;stop-opacity:1"/><stop offset="1" style="stop-color:#742fec;stop-opacity:1"/></linearGradient><linearGradient id="_Linear8" x1="0" y1="0" x2="1" y2="0" gradientUnits="userSpaceOnUse" gradientTransform="matrix(123.016,-0.440017,0.42313,118.295,0.0920453,26.5776)"><stop offset="0" style="stop-color:#65c752;stop-opacity:1"/><stop offset="0.51" style="stop-color:#2e0980;stop-opacity:1"/><stop offset="1" style="stop-color:#f1af41;stop-opacity:1"/></linearGradient><linearGradient id="_Linear9" x1="0" y1="0" x2="1" y2="0" gradientUnits="userSpaceOnUse" gradientTransform="matrix(210.943,-0.754524,0.725566,202.847,0.159896,45.5467)"><stop offset="0" style="stop-color:#ad0077;stop-opacity:1"/><stop offset="0.01" style="stop-color:#ad0077;stop-opacity:1"/><stop offset="0.5" style="stop-color:#c1da21;stop-opacity:1"/><stop offset="1" style="stop-color:#37f222;stop-opacity:1"/></linearGradient><linearGradient id="_Linear10" x1="0" y1="0" x2="1" y2="0" gradientUnits="userSpaceOnUse" gradientTransform="matrix(185.719,-0.664299,0.638804,178.591,0.145923,41.6401)"><stop offset="0" style="stop-color:#ab7b00;stop-opacity:1"/><stop offset="1" style="stop-color:#502fec;stop-opacity:1"/></linearGradient><linearGradient id="_Linear11" x1="0" y1="0" x2="1" y2="0" gradientUnits="userSpaceOnUse" gradientTransform="matrix(133.75,-0.478412,0.460051,128.617,0.103278,29.718)"><stop offset="0" style="stop-color:#951ff6;stop-opacity:1"/><stop offset="0.49" style="stop-color:#c8ba00;stop-opacity:1"/><stop offset="0.99" style="stop-color:#5922f2;stop-opacity:1"/><stop offset="1" style="stop-color:#5922f2;stop-opacity:1"/></linearGradient><linearGradient id="_Linear12" x1="0" y1="0" x2="1" y2="0" gradientUnits="userSpaceOnUse" gradientTransform="matrix(46.884,-0.1677,0.161264,45.0846,0.0798416,23.1658)"><stop offset="0" style="stop-color:#66a0ff;stop-opacity:1"/><stop offset="0.01" style="stop-color:#659cfc;stop-opacity:1"/><stop offset="0.1" style="stop-color:#5e89ed;stop-opacity:1"/><stop offset="0.19" style="stop-color:#5a7ee4;stop-opacity:1"/><stop offset="0.28" style="stop-color:#597ae1;stop-opacity:1"/><stop offset="0.67" style="stop-color:#9624b3;stop-opacity:1"/><stop offset="0.89" style="stop-color:#7e214b;stop-opacity:1"/><stop offset="1" style="stop-color:#92452e;stop-opacity:1"/></linearGradient><linearGradient id="_Linear13" x1="0" y1="0" x2="1" y2="0" gradientUnits="userSpaceOnUse" gradientTransform="matrix(155.62,-0.55664,0.535277,149.648,80.8369,107.139)"><stop offset="0" style="stop-color:#da2128;stop-opacity:1"/><stop offset="0.52" style="stop-color:#ed6c30;stop-opacity:1"/><stop offset="1" style="stop-color:#f05123;stop-opacity:1"/></linearGradient><linearGradient id="_Linear14" x1="0" y1="0" x2="1" y2="0" gradientUnits="userSpaceOnUse" gradientTransform="matrix(2.82517,-0.0101054,0.00971754,2.71674,0.00603238,2.53087)"><stop offset="0" style="stop-color:#c7ff00;stop-opacity:1"/><stop offset="0.05" style="stop-color:#c7ff00;stop-opacity:1"/><stop offset="0.53" style="stop-color:#0e23a8;stop-opacity:1"/><stop offset="1" style="stop-color:#a93e5d;stop-opacity:1"/></linearGradient><linearGradient id="_Linear15" x1="0" y1="0" x2="1" y2="0" gradientUnits="userSpaceOnUse" gradientTransform="matrix(143.548,-0.51346,0.493754,138.039,92.9206,110.344)"><stop offset="0" style="stop-color:#ff6680;stop-opacity:1"/><stop offset="0" style="stop-color:#ff6680;stop-opacity:1"/><stop offset="0.09" style="stop-color:#ee5f6d;stop-opacity:1"/><stop offset="0.18" style="stop-color:#e45a62;stop-opacity:1"/><stop offset="0.28" style="stop-color:#e1595e;stop-opacity:1"/><stop offset="0.67" style="stop-color:#b37e24;stop-opacity:1"/><stop offset="0.89" style="stop-color:#7e7021;stop-opacity:1"/><stop offset="1" style="stop-color:#65922e;stop-opacity:1"/></linearGradient><linearGradient id="_Linear16" x1="0" y1="0" x2="1" y2="0" gradientUnits="userSpaceOnUse" gradientTransform="matrix(16.4267,-0.058757,0.056502,15.7963,65.4471,1.07821)"><stop offset="0" style="stop-color:#dad521;stop-opacity:1"/><stop offset="0.52" style="stop-color:#75ed30;stop-opacity:1"/><stop offset="1" style="stop-color:#97f023;stop-opacity:1"/></linearGradient><linearGradient id="_Linear17" x1="0" y1="0" x2="1" y2="0" gradientUnits="userSpaceOnUse" gradientTransform="matrix(52.373,-0.187334,0.180144,50.363,59.2021,5.0071)"><stop offset="0" style="stop-color:#f37121;stop-opacity:1"/><stop offset="1" style="stop-color:#0080c8;stop-opacity:1"/></linearGradient><linearGradient id="_Linear18" x1="0" y1="0" x2="1" y2="0" gradientUnits="userSpaceOnUse" gradientTransform="matrix(35.6564,-0.12754,0.122645,34.288,0.0666425,19.4757)"><stop offset="0" style="stop-color:#2145da;stop-opacity:1"/><stop offset="1" style="stop-color:#a87300;stop-opacity:1"/></linearGradient><linearGradient id="_Linear19" x1="0" y1="0" x2="1" y2="0" gradientUnits="userSpaceOnUse" gradientTransform="matrix(18.1287,-0.0648448,0.0623561,17.433,0.037474,11.321)"><stop offset="0" style="stop-color:#ce5439;stop-opacity:1"/><stop offset="0.05" style="stop-color:#ce5439;stop-opacity:1"/><stop offset="0.53" style="stop-color:#0d7f24;stop-opacity:1"/><stop offset="1" style="stop-color:#2145da;stop-opacity:1"/></linearGradient><linearGradient id="_Linear20" x1="0" y1="0" x2="1" y2="0" gradientUnits="userSpaceOnUse" gradientTransform="matrix(10.323,-0.0369244,0.0355073,9.9268,0.021867,6.95777)"><stop offset="0" style="stop-color:#3f39ce;stop-opacity:1"/><stop offset="0.05" style="stop-color:#3f39ce;stop-opacity:1"/><stop offset="0.53" style="stop-color:#7f5e2f;stop-opacity:1"/><stop offset="1" style="stop-color:#c1da21;stop-opacity:1"/></linearGradient><linearGradient id="_Linear21" x1="0" y1="0" x2="1" y2="0" gradientUnits="userSpaceOnUse" gradientTransform="matrix(37.3845,-0.133721,0.128589,35.9497,61.3222,3.04636)"><stop offset="0" style="stop-color:#002dc8;stop-opacity:1"/><stop offset="0.49" style="stop-color:#94357c;stop-opacity:1"/><stop offset="1" style="stop-color:#f2b31f;stop-opacity:1"/></linearGradient><linearGradient id="_Linear22" x1="0" y1="0" x2="1" y2="0" gradientUnits="userSpaceOnUse" gradientTransform="matrix(26.449,-0.0946057,0.0909749,25.4339,0.052479,15.516)"><stop offset="0" style="stop-color:#8fc752;stop-opacity:1"/><stop offset="0.51" style="stop-color:#363180;stop-opacity:1"/><stop offset="1" style="stop-color:#f19441;stop-opacity:1"/></linearGradient><linearGradient id="_Linear23" x1="0" y1="0" x2="1" y2="0" gradientUnits="userSpaceOnUse" gradientTransform="matrix(110.006,-0.393481,0.37838,105.784,126.509,123.101)"><stop offset="0" style="stop-color:#2145da;stop-opacity:1"/><stop offset="1" style="stop-color:#a87300;stop-opacity:1"/></linearGradient><linearGradient id="_Linear24" x1="0" y1="0" x2="1" y2="0" gradientUnits="userSpaceOnUse" gradientTransform="matrix(117.573,-0.420549,0.404409,113.061,118.93,119.957)"><stop offset="0" style="stop-color:#ab8c00;stop-opacity:1"/><stop offset="1" style="stop-color:#742fec;stop-opacity:1"/></linearGradient><linearGradient id="_Linear25" x1="0" y1="0" x2="1" y2="0" gradientUnits="userSpaceOnUse" gradientTransform="matrix(102.644,-0.367147,0.353057,98.7043,133.883,126.188)"><stop offset="0" style="stop-color:#ff3b49;stop-opacity:1"/><stop offset="0.05" style="stop-color:#fe2c66;stop-opacity:1"/><stop offset="0.1" style="stop-color:#fe1e80;stop-opacity:1"/><stop offset="0.16" style="stop-color:#fd1493;stop-opacity:1"/><stop offset="0.22" style="stop-color:#fd0e9e;stop-opacity:1"/><stop offset="0.28" style="stop-color:#fd0ca2;stop-opacity:1"/><stop offset="0.67" style="stop-color:#943ff3;stop-opacity:1"/><stop offset="0.89" style="stop-color:#5d3ced;stop-opacity:1"/><stop offset="1" style="stop-color:#3a52e9;stop-opacity:1"/></linearGradient><linearGradient id="_Linear26" x1="0" y1="0" x2="1" y2="0" gradientUnits="userSpaceOnUse" gradientTransform="matrix(25.6111,-0.0916087,0.0880929,24.6282,29.3078,140.232)"><stop offset="0" style="stop-color:#ff3b49;stop-opacity:1"/><stop offset="0.02" style="stop-color:#f64461;stop-opacity:1"/><stop offset="0.06" style="stop-color:#e7548b;stop-opacity:1"/><stop offset="0.1" style="stop-color:#db60ad;stop-opacity:1"/><stop offset="0.15" style="stop-color:#d16ac8;stop-opacity:1"/><stop offset="0.19" style="stop-color:#ca71db;stop-opacity:1"/><stop offset="0.23" style="stop-color:#c676e6;stop-opacity:1"/><stop offset="0.28" style="stop-color:#c577ea;stop-opacity:1"/><stop offset="0.67" style="stop-color:#8788da;stop-opacity:1"/><stop offset="0.89" style="stop-color:#6c9ccd;stop-opacity:1"/><stop offset="1" style="stop-color:#2fa6be;stop-opacity:1"/></linearGradient><linearGradient id="_Linear27" x1="0" y1="0" x2="1" y2="0" gradientUnits="userSpaceOnUse" gradientTransform="matrix(95.3727,-0.34114,0.328047,91.7124,141.164,129.194)"><stop offset="0" style="stop-color:#ab7b00;stop-opacity:1"/><stop offset="1" style="stop-color:#502fec;stop-opacity:1"/></linearGradient><linearGradient id="_Linear28" x1="0" y1="0" x2="1" y2="0" gradientUnits="userSpaceOnUse" gradientTransform="matrix(125.493,-0.448878,0.43165,120.677,110.999,116.772)"><stop offset="0" style="stop-color:#b5c634;stop-opacity:1"/><stop offset="1" style="stop-color:#a92e91;stop-opacity:1"/></linearGradient><linearGradient id="_Linear29" x1="0" y1="0" x2="1" y2="0" gradientUnits="userSpaceOnUse" gradientTransform="matrix(133.999,-0.479302,0.460907,128.856,102.482,113.562)"><stop offset="0" style="stop-color:#3452c6;stop-opacity:1"/><stop offset="1" style="stop-color:#a98a2e;stop-opacity:1"/></linearGradient><linearGradient id="_Linear30" x1="0" y1="0" x2="1" y2="0" gradientUnits="userSpaceOnUse" gradientTransform="matrix(64.8334,-0.231903,0.223003,62.3452,171.732,136.897)"><stop offset="0" style="stop-color:#00a4ab;stop-opacity:1"/><stop offset="1" style="stop-color:#ec7d2f;stop-opacity:1"/></linearGradient><linearGradient id="_Linear31" x1="0" y1="0" x2="1" y2="0" gradientUnits="userSpaceOnUse" gradientTransform="matrix(88.0766,-0.315042,0.302951,84.6963,148.467,131.121)"><stop offset="0" style="stop-color:#00ab66;stop-opacity:1"/><stop offset="1" style="stop-color:#ec5c2f;stop-opacity:1"/></linearGradient><linearGradient id="_Linear32" x1="0" y1="0" x2="1" y2="0" gradientUnits="userSpaceOnUse" gradientTransform="matrix(11.0201,-0.0394177,0.0379049,10.5971,41.9584,142.14)"><stop offset="0" style="stop-color:#c78352;stop-opacity:1"/><stop offset="0.51" style="stop-color:#398031;stop-opacity:1"/><stop offset="1" style="stop-color:#cb41f1;stop-opacity:1"/></linearGradient><linearGradient id="_Linear33" x1="0" y1="0" x2="1" y2="0" gradientUnits="userSpaceOnUse" gradientTransform="matrix(17.3178,-0.0619443,0.059567,16.6532,190.877,140.735)"><stop offset="0" style="stop-color:#3b70ff;stop-opacity:1"/><stop offset="0.01" style="stop-color:#367bff;stop-opacity:1"/><stop offset="0.07" style="stop-color:#279dfe;stop-opacity:1"/><stop offset="0.12" style="stop-color:#1bb8fe;stop-opacity:1"/><stop offset="0.17" style="stop-color:#13cbfd;stop-opacity:1"/><stop offset="0.22" style="stop-color:#0ed6fd;stop-opacity:1"/><stop offset="0.28" style="stop-color:#0cdafd;stop-opacity:1"/><stop offset="0.67" style="stop-color:#3ff357;stop-opacity:1"/><stop offset="0.89" style="stop-color:#71ed3c;stop-opacity:1"/><stop offset="1" style="stop-color:#c3e93a;stop-opacity:1"/></linearGradient><linearGradient id="_Linear34" x1="0" y1="0" x2="1" y2="0" gradientUnits="userSpaceOnUse" gradientTransform="matrix(29.3912,-0.10513,0.101095,28.2632,180.601,138.818)"><stop offset="0" style="stop-color:#a99800;stop-opacity:1"/><stop offset="0" style="stop-color:#449537;stop-opacity:1"/><stop offset="0.51" style="stop-color:#357fa5;stop-opacity:1"/><stop offset="1" style="stop-color:#2221da;stop-opacity:1"/></linearGradient><linearGradient id="_Linear35" x1="0" y1="0" x2="1" y2="0" gradientUnits="userSpaceOnUse" gradientTransform="matrix(72.958,-0.260964,0.250949,70.1579,163.6,134.973)"><stop offset="0" style="stop-color:#343dc6;stop-opacity:1"/><stop offset="1" style="stop-color:#a9932e;stop-opacity:1"/></linearGradient><linearGradient id="_Linear36" x1="0" y1="0" x2="1" y2="0" gradientUnits="userSpaceOnUse" gradientTransform="matrix(236.076,-0.844423,0.812015,227.016,0.187054,53.1111)"><stop offset="0" style="stop-color:#c78352;stop-opacity:1"/><stop offset="0.51" style="stop-color:#398031;stop-opacity:1"/><stop offset="1" style="stop-color:#cb41f1;stop-opacity:1"/></linearGradient><linearGradient id="_Linear37" x1="0" y1="0" x2="1" y2="0" gradientUnits="userSpaceOnUse" gradientTransform="matrix(80.6467,-0.288466,0.277395,77.5516,155.904,133.047)"><stop offset="0" style="stop-color:#00a4ab;stop-opacity:1"/><stop offset="1" style="stop-color:#ec7d2f;stop-opacity:1"/></linearGradient><linearGradient id="_Linear38" x1="0" y1="0" x2="1" y2="0" gradientUnits="userSpaceOnUse" gradientTransform="matrix(236.076,-0.844423,0.812015,227.016,0.283997,80.2417)"><stop offset="0" style="stop-color:#3b70ff;stop-opacity:1"/><stop offset="0.06" style="stop-color:#5484eb;stop-opacity:1"/><stop offset="0.13" style="stop-color:#6792dd;stop-opacity:1"/><stop offset="0.2" style="stop-color:#729bd4;stop-opacity:1"/><stop offset="0.28" style="stop-color:#769ed1;stop-opacity:1"/><stop offset="0.67" style="stop-color:#9191a3;stop-opacity:1"/><stop offset="0.89" style="stop-color:#a46c6a;stop-opacity:1"/><stop offset="1" style="stop-color:#b13533;stop-opacity:1"/></linearGradient><linearGradient id="_Linear39" x1="0" y1="0" x2="1" y2="0" gradientUnits="userSpaceOnUse" gradientTransform="matrix(236.076,-0.844423,0.812015,227.016,0.233851,66.2228)"><stop offset="0" style="stop-color:#f9f037;stop-opacity:1"/><stop offset="0.53" style="stop-color:#690d7f;stop-opacity:1"/><stop offset="1" style="stop-color:#f28922;stop-opacity:1"/></linearGradient><linearGradient id="_Linear40" x1="0" y1="0" x2="1" y2="0" gradientUnits="userSpaceOnUse" gradientTransform="matrix(236.076,-0.844423,0.812015,227.016,0.26695,75.4757)"><stop offset="0" style="stop-color:#c1da21;stop-opacity:1"/><stop offset="1" style="stop-color:#a500a8;stop-opacity:1"/></linearGradient><linearGradient id="_Linear41" x1="0" y1="0" x2="1" y2="0" gradientUnits="userSpaceOnUse" gradientTransform="matrix(236.076,-0.844424,0.812016,227.016,0.25023,70.8014)"><stop offset="0" style="stop-color:#ff503b;stop-opacity:1"/><stop offset="0.02" style="stop-color:#ff493e;stop-opacity:1"/><stop offset="0.08" style="stop-color:#fe2e46;stop-opacity:1"/><stop offset="0.14" style="stop-color:#fd1b4d;stop-opacity:1"/><stop offset="0.21" style="stop-color:#fd1051;stop-opacity:1"/><stop offset="0.28" style="stop-color:#fd0c52;stop-opacity:1"/><stop offset="0.67" style="stop-color:#c33ff3;stop-opacity:1"/><stop offset="0.89" style="stop-color:#803ced;stop-opacity:1"/><stop offset="1" style="stop-color:#453ae9;stop-opacity:1"/></linearGradient><linearGradient id="_Linear42" x1="0" y1="0" x2="1" y2="0" gradientUnits="userSpaceOnUse" gradientTransform="matrix(236.076,-0.844423,0.812015,227.016,0.217834,61.7446)"><stop offset="0" style="stop-color:#f9374b;stop-opacity:1"/><stop offset="0.53" style="stop-color:#2f7f5c;stop-opacity:1"/><stop offset="1" style="stop-color:#8722f2;stop-opacity:1"/></linearGradient><linearGradient id="_Linear43" x1="0" y1="0" x2="1" y2="0" gradientUnits="userSpaceOnUse" gradientTransform="matrix(236.076,-0.844423,0.812015,227.016,0.202322,57.372)"><stop offset="0" style="stop-color:#ad0077;stop-opacity:1"/><stop offset="0.01" style="stop-color:#ad0077;stop-opacity:1"/><stop offset="0.5" style="stop-color:#c1da21;stop-opacity:1"/><stop offset="1" style="stop-color:#37f222;stop-opacity:1"/></linearGradient><linearGradient id="_Linear44" x1="0" y1="0" x2="1" y2="0" gradientUnits="userSpaceOnUse" gradientTransform="matrix(236.076,-0.844424,0.812016,227.016,0.356787,100.592)"><stop offset="0" style="stop-color:#2f7f5c;stop-opacity:1"/><stop offset="1" style="stop-color:#ff0002;stop-opacity:1"/></linearGradient><linearGradient id="_Linear45" x1="0" y1="0" x2="1" y2="0" gradientUnits="userSpaceOnUse" gradientTransform="matrix(236.076,-0.844423,0.812015,227.016,0.369687,104.198)"><stop offset="0" style="stop-color:#2145da;stop-opacity:1"/><stop offset="1" style="stop-color:#a87300;stop-opacity:1"/></linearGradient><linearGradient id="_Linear46" x1="0" y1="0" x2="1" y2="0" gradientUnits="userSpaceOnUse" gradientTransform="matrix(236.076,-0.844423,0.812015,227.016,0.301465,85.0961)"><stop offset="0" style="stop-color:#da2128;stop-opacity:1"/><stop offset="1" style="stop-color:#00a84f;stop-opacity:1"/></linearGradient><linearGradient id="_Linear47" x1="0" y1="0" x2="1" y2="0" gradientUnits="userSpaceOnUse" gradientTransform="matrix(35.4573,-0.126828,0.12196,34.0965,19.5783,138.314)"><stop offset="0" style="stop-color:#262aa0;stop-opacity:1"/><stop offset="1" style="stop-color:#f2b31f;stop-opacity:1"/></linearGradient><linearGradient id="_Linear48" x1="0" y1="0" x2="1" y2="0" gradientUnits="userSpaceOnUse" gradientTransform="matrix(47.1753,-0.168742,0.162266,45.3648,9.9686,136.395)"><stop offset="0" style="stop-color:#f39521;stop-opacity:1"/><stop offset="1" style="stop-color:#002dc8;stop-opacity:1"/></linearGradient><linearGradient id="_Linear49" x1="0" y1="0" x2="1" y2="0" gradientUnits="userSpaceOnUse" gradientTransform="matrix(236.076,-0.844424,0.812016,227.016,0.318936,90.0361)"><stop offset="0" style="stop-color:#ab8500;stop-opacity:1"/><stop offset="0.05" style="stop-color:#ab8500;stop-opacity:1"/><stop offset="0.5" style="stop-color:#266ebd;stop-opacity:1"/><stop offset="1" style="stop-color:#8d22f2;stop-opacity:1"/></linearGradient><linearGradient id="_Linear50" x1="0" y1="0" x2="1" y2="0" gradientUnits="userSpaceOnUse" gradientTransform="matrix(236.076,-0.844423,0.812015,227.016,0.336999,95.0595)"><stop offset="0" style="stop-color:#00ab66;stop-opacity:1"/><stop offset="1" style="stop-color:#ec5c2f;stop-opacity:1"/></linearGradient></defs></svg>
