<svg id="Layer_1" data-name="Layer 1" xmlns="http://www.w3.org/2000/svg" viewBox="0 0 510.72 537.95"><path d="M160.92,299.8C160.92,174,263.24,71.7,389,71.7a227,227,0,0,1,86.44,17C430.18,52.75,372,31.29,306.25,31.29c-155.72,0-269,120.33-269,269s113.25,269,269,269c66.88,0,125.92-22.21,171.52-59.31a226.86,226.86,0,0,1-88.75,18C263.24,527.9,160.92,425.58,160.92,299.8Z" transform="translate(-37.28 -31.29)"/><path d="M389,140.82a159,159,0,0,0,0,318c87.66,0,159-71.32,159-159S476.68,140.82,389,140.82Z" transform="translate(-37.28 -31.29)"/></svg>